<svg width="25" height="24" viewBox="0 0 25 24" fill="none" xmlns="http://www.w3.org/2000/svg">
<path fill-rule="evenodd" clip-rule="evenodd" d="M8.74567 3.88583L8.3 5H5.5C3.84315 5 2.5 6.34315 2.5 8V19C2.5 20.6569 3.84315 22 5.5 22H19.5C21.1569 22 22.5 20.6569 22.5 19V8C22.5 6.34315 21.1569 5 19.5 5H16.7L16.2543 3.88583C15.7987 2.74685 14.6956 2 13.4689 2H11.5311C10.3044 2 9.20126 2.74685 8.74567 3.88583ZM13.4689 4H11.5311C11.1222 4 10.7545 4.24895 10.6026 4.62861L10.4541 5H14.5459L14.3974 4.62861C14.2455 4.24895 13.8778 4 13.4689 4ZM19.5 7C20.0523 7 20.5 7.44771 20.5 8V11C20.5 11.5523 20.0523 12 19.5 12H15.2324C14.8866 11.4022 14.2403 11 13.5 11H11.5C10.7597 11 10.1134 11.4022 9.76756 12H5.5C4.94772 12 4.5 11.5523 4.5 11V8C4.5 7.44772 4.94772 7 5.5 7H19.5ZM9.76756 14H5.5C5.14936 14 4.81278 13.9398 4.5 13.8293V19C4.5 19.5523 4.94772 20 5.5 20H19.5C20.0523 20 20.5 19.5523 20.5 19V13.8293C20.1872 13.9398 19.8506 14 19.5 14H15.2324C14.8866 14.5978 14.2403 15 13.5 15H11.5C10.7597 15 10.1134 14.5978 9.76756 14Z" fill="#676D75"/>
</svg>
