<svg width="28" height="24" viewBox="0 0 28 24" fill="none" xmlns="http://www.w3.org/2000/svg">
<path d="M15.7529 1.49938C15.7529 0.670955 15.0814 -0.000617981 14.2529 -0.000617981C13.4245 -0.000617981 12.7529 0.670955 12.7529 1.49938V13.6288L8.56345 9.43934C7.97767 8.85355 7.02792 8.85355 6.44213 9.43934C5.85635 10.0251 5.85635 10.9749 6.44213 11.5607L12.1315 17.2501C13.3031 18.4216 15.2026 18.4216 16.3742 17.2501L22.0607 11.5636C22.6464 10.9778 22.6464 10.0281 22.0607 9.44227C21.4749 8.85648 20.5251 8.85648 19.9393 9.44227L15.7529 13.6287V1.49938Z" fill="white"/>
<path fill-rule="evenodd" clip-rule="evenodd" d="M2.25 15C3.07843 15 3.75 15.6716 3.75 16.5V19.5C3.75 20.3284 4.42157 21 5.25 21H23.25C24.0784 21 24.75 20.3284 24.75 19.5V16.5C24.75 15.6716 25.4216 15 26.25 15C27.0784 15 27.75 15.6716 27.75 16.5V19.5C27.75 21.9853 25.7353 24 23.25 24H5.25C2.76472 24 0.75 21.9853 0.75 19.5V16.5C0.75 15.6716 1.42157 15 2.25 15Z" fill="white"/>
</svg>
