<svg width="16" height="15" viewBox="0 0 16 15" fill="none" xmlns="http://www.w3.org/2000/svg">
<path fill-rule="evenodd" clip-rule="evenodd" d="M7.03074 5.46889C6.27326 5.83102 5.75 6.6044 5.75 7.5C5.75 8.74264 6.75736 9.75 8 9.75C8.8956 9.75 9.66898 9.22674 10.0311 8.46926L7.03074 5.46889ZM8.75 7.5C8.75 7.91421 8.41421 8.25 8 8.25C7.58579 8.25 7.25 7.91421 7.25 7.5C7.25 7.08579 7.58579 6.75 8 6.75C8.41421 6.75 8.75 7.08579 8.75 7.5Z" fill="#21A761"/>
<path d="M4.62573 3.06388C2.73907 4.03771 1.5448 5.66041 0.951347 6.64998C0.634647 7.17807 0.634646 7.82193 0.951346 8.35002C1.84256 9.83609 4.08874 12.75 8 12.75C9.9595 12.75 11.5011 12.0186 12.6637 11.1019L11.5939 10.032C10.6609 10.7275 9.46993 11.25 8 11.25C4.91597 11.25 3.06007 8.94975 2.23775 7.57855C2.21896 7.54722 2.21382 7.52083 2.21382 7.5C2.21382 7.47917 2.21896 7.45278 2.23775 7.42145C2.83682 6.42251 3.98445 4.93049 5.75585 4.194L4.62573 3.06388Z" fill="#21A761"/>
<path d="M12.7008 9.0176C13.1567 8.51271 13.5086 8.00144 13.7623 7.57855C13.781 7.54722 13.7862 7.52083 13.7862 7.5C13.7862 7.47917 13.781 7.45278 13.7623 7.42145C12.9399 6.05025 11.084 3.75 8 3.75C7.81471 3.75 7.63385 3.7583 7.45738 3.77421L6.16113 2.47796C6.72769 2.33293 7.34015 2.25 8 2.25C11.9113 2.25 14.1574 5.16391 15.0487 6.64998C15.3654 7.17807 15.3654 7.82193 15.0487 8.35002C14.7626 8.82695 14.3371 9.45095 13.7617 10.0785L12.7008 9.0176Z" fill="#21A761"/>
<path fill-rule="evenodd" clip-rule="evenodd" d="M0.71967 0.21967C1.01256 -0.0732233 1.48744 -0.0732233 1.78033 0.21967L15.2803 13.7197C15.5732 14.0126 15.5732 14.4874 15.2803 14.7803C14.9874 15.0732 14.5126 15.0732 14.2197 14.7803L0.71967 1.28033C0.426777 0.987437 0.426777 0.512563 0.71967 0.21967Z" fill="#21A761"/>
</svg>
