<svg width="25" height="24" viewBox="0 0 25 24" fill="none" xmlns="http://www.w3.org/2000/svg">
<path fill-rule="evenodd" clip-rule="evenodd" d="M5.5 22C3.84315 22 2.5 20.6568 2.5 19V11.3361C2.5 10.4856 2.86096 9.67512 3.49311 9.10619L10.4931 2.80619C11.634 1.77937 13.366 1.77937 14.5069 2.80619L21.5069 9.10619C22.139 9.67512 22.5 10.4856 22.5 11.3361V19C22.5 20.6568 21.1569 22 19.5 22H5.5ZM20.5 11.3361V19C20.5 19.5523 20.0523 20 19.5 20H16.5V15C16.5 13.3431 15.1569 12 13.5 12H11.5C9.84315 12 8.5 13.3431 8.5 15V20H5.5C4.94772 20 4.5 19.5523 4.5 19V11.3361C4.5 11.0526 4.62032 10.7824 4.83104 10.5928L11.831 4.29278C12.2113 3.9505 12.7887 3.9505 13.169 4.29278L20.169 10.5928C20.3797 10.7824 20.5 11.0526 20.5 11.3361ZM10.5 20V15C10.5 14.4477 10.9477 14 11.5 14H13.5C14.0523 14 14.5 14.4477 14.5 15V20H10.5Z" fill="#6F767E"/>
</svg>
