<svg width="17" height="16" viewBox="0 0 17 16" fill="none" xmlns="http://www.w3.org/2000/svg">
<path fill-rule="evenodd" clip-rule="evenodd" d="M9.14904 2.3935C8.73872 2.19655 8.26116 2.19655 7.85084 2.3935L2.42062 5.00001L1.77152 3.64773L7.20175 1.04122C8.02239 0.647312 8.97749 0.647312 9.79813 1.04122L15.2284 3.64773C16.6672 4.33836 16.1753 6.50001 14.5793 6.50001H2.42062C0.824619 6.50001 0.332704 4.33836 1.77152 3.64773L2.42062 5.00001L14.5793 5.00001L9.14904 2.3935Z" fill="#21A761"/>
<path fill-rule="evenodd" clip-rule="evenodd" d="M8.49994 7.25001C8.91415 7.25001 9.24994 7.5858 9.24994 8.00001V12.5C9.24994 12.9142 8.91415 13.25 8.49994 13.25C8.08573 13.25 7.74994 12.9142 7.74994 12.5V8.00001C7.74994 7.5858 8.08573 7.25001 8.49994 7.25001Z" fill="#21A761"/>
<path fill-rule="evenodd" clip-rule="evenodd" d="M3.24994 7.25001C3.66415 7.25001 3.99994 7.5858 3.99994 8.00001V12.5C3.99994 12.9142 3.66415 13.25 3.24994 13.25C2.83573 13.25 2.49994 12.9142 2.49994 12.5V8.00001C2.49994 7.5858 2.83573 7.25001 3.24994 7.25001Z" fill="#21A761"/>
<path fill-rule="evenodd" clip-rule="evenodd" d="M13.7499 7.25001C14.1642 7.25001 14.4999 7.5858 14.4999 8.00001V12.5C14.4999 12.9142 14.1642 13.25 13.7499 13.25C13.3357 13.25 12.9999 12.9142 12.9999 12.5V8.00001C12.9999 7.5858 13.3357 7.25001 13.7499 7.25001Z" fill="#21A761"/>
<path fill-rule="evenodd" clip-rule="evenodd" d="M0.99994 14.75C0.99994 14.3358 1.33573 14 1.74994 14H15.2499C15.6642 14 15.9999 14.3358 15.9999 14.75C15.9999 15.1642 15.6642 15.5 15.2499 15.5H1.74994C1.33573 15.5 0.99994 15.1642 0.99994 14.75Z" fill="#21A761"/>
</svg>
