<svg width="25" height="24" viewBox="0 0 25 24" fill="none" xmlns="http://www.w3.org/2000/svg">
<path d="M13.2071 7.79289C12.8166 7.40237 12.1834 7.40237 11.7929 7.79289C11.4024 8.18342 11.4024 8.81658 11.7929 9.20711L13.5858 11H4.5C3.94772 11 3.5 11.4477 3.5 12C3.5 12.5523 3.94772 13 4.5 13H13.5858L11.7929 14.7929C11.4024 15.1834 11.4024 15.8166 11.7929 16.2071C12.1834 16.5976 12.8166 16.5976 13.2071 16.2071L16 13.4142C16.7811 12.6332 16.781 11.3668 16 10.5858L13.2071 7.79289Z" fill="#161616"/>
<path fill-rule="evenodd" clip-rule="evenodd" d="M21.5 5C21.5 3.34315 20.1569 2 18.5 2H12.5C10.8431 2 9.5 3.34315 9.5 5V6C9.5 6.55228 9.94771 7 10.5 7C11.0523 7 11.5 6.55228 11.5 6V5C11.5 4.44772 11.9477 4 12.5 4H18.5C19.0523 4 19.5 4.44772 19.5 5V19C19.5 19.5523 19.0523 20 18.5 20H12.5C11.9477 20 11.5 19.5523 11.5 19V18C11.5 17.4477 11.0523 17 10.5 17C9.94771 17 9.5 17.4477 9.5 18V19C9.5 20.6569 10.8431 22 12.5 22H18.5C20.1569 22 21.5 20.6569 21.5 19V5Z" fill="#161616"/>
</svg>
