<svg width="25" height="25" viewBox="0 0 25 25" fill="none" xmlns="http://www.w3.org/2000/svg">
<path d="M18.1373 8.29289C17.7487 7.90237 17.1185 7.90237 16.7298 8.29289C16.3412 8.68342 16.3412 9.31658 16.7298 9.70711L18.5142 11.5H9.47154C8.92188 11.5 8.47628 11.9477 8.47628 12.5C8.47628 13.0523 8.92188 13.5 9.47154 13.5H18.5142L16.7298 15.2929C16.3412 15.6834 16.3412 16.3166 16.7298 16.7071C17.1185 17.0976 17.7487 17.0976 18.1373 16.7071L20.917 13.9142C21.6943 13.1332 21.6943 11.8668 20.917 11.0858L18.1373 8.29289Z" fill="white"/>
<path fill-rule="evenodd" clip-rule="evenodd" d="M3.5 5.5C3.5 3.84315 4.83677 2.5 6.48577 2.5H12.4573C14.1063 2.5 15.4431 3.84315 15.4431 5.5V6.5C15.4431 7.05228 14.9975 7.5 14.4478 7.5C13.8982 7.5 13.4526 7.05228 13.4526 6.5V5.5C13.4526 4.94772 13.007 4.5 12.4573 4.5H6.48577C5.93611 4.5 5.49051 4.94772 5.49051 5.5V19.5C5.49051 20.0523 5.9361 20.5 6.48577 20.5H12.4573C13.007 20.5 13.4526 20.0523 13.4526 19.5V18.5C13.4526 17.9477 13.8982 17.5 14.4478 17.5C14.9975 17.5 15.4431 17.9477 15.4431 18.5V19.5C15.4431 21.1569 14.1063 22.5 12.4573 22.5H6.48577C4.83677 22.5 3.5 21.1569 3.5 19.5V5.5Z" fill="white"/>
</svg>
