<svg width="15" height="15" viewBox="0 0 15 15" fill="none" xmlns="http://www.w3.org/2000/svg">
<path fill-rule="evenodd" clip-rule="evenodd" d="M3.75 4.75C3.75 4.33579 4.08579 4 4.5 4H10.5C10.9142 4 11.25 4.33579 11.25 4.75C11.25 5.16421 10.9142 5.5 10.5 5.5H4.5C4.08579 5.5 3.75 5.16421 3.75 4.75Z" fill="#21A761"/>
<path fill-rule="evenodd" clip-rule="evenodd" d="M3.75 7.75C3.75 7.33579 4.08579 7 4.5 7H7.5C7.91421 7 8.25 7.33579 8.25 7.75C8.25 8.16421 7.91421 8.5 7.5 8.5H4.5C4.08579 8.5 3.75 8.16421 3.75 7.75Z" fill="#21A761"/>
<path fill-rule="evenodd" clip-rule="evenodd" d="M3.53972 11.0977C3.8093 10.873 4.1491 10.75 4.5 10.75H12.75C13.1642 10.75 13.5 10.4142 13.5 10V2.5C13.5 2.08579 13.1642 1.75 12.75 1.75H2.25C1.83579 1.75 1.5 2.08579 1.5 2.5V12.7974L3.53972 11.0977ZM4.5 12.25H12.75C13.9926 12.25 15 11.2426 15 10V2.5C15 1.25736 13.9926 0.25 12.75 0.25H2.25C1.00736 0.25 0 1.25736 0 2.5V12.7974C0 14.0692 1.48328 14.7639 2.46027 13.9498L4.5 12.25Z" fill="#21A761"/>
</svg>
