<svg width="25" height="24" viewBox="0 0 25 24" fill="none" xmlns="http://www.w3.org/2000/svg">
<path fill-rule="evenodd" clip-rule="evenodd" d="M12.5 10C14.1569 10 15.5 8.65685 15.5 7C15.5 5.34315 14.1569 4 12.5 4C10.8431 4 9.5 5.34315 9.5 7C9.5 8.65685 10.8431 10 12.5 10ZM12.5 12C15.2614 12 17.5 9.76142 17.5 7C17.5 4.23858 15.2614 2 12.5 2C9.73858 2 7.5 4.23858 7.5 7C7.5 9.76142 9.73858 12 12.5 12Z" fill="#676D75"/>
<path fill-rule="evenodd" clip-rule="evenodd" d="M9.5 16C7.29086 16 5.5 17.7909 5.5 20V21C5.5 21.5523 5.05228 22 4.5 22C3.94772 22 3.5 21.5523 3.5 21V20C3.5 16.6863 6.18629 14 9.5 14H15.5C18.8137 14 21.5 16.6863 21.5 20V21C21.5 21.5523 21.0523 22 20.5 22C19.9477 22 19.5 21.5523 19.5 21V20C19.5 17.7909 17.7091 16 15.5 16H9.5Z" fill="#676D75"/>
</svg>
