<svg width="113" height="36" viewBox="0 0 113 36" fill="none" xmlns="http://www.w3.org/2000/svg">
<circle cx="6.5" cy="18" r="5" stroke="#21A761" stroke-width="2"/>
<line x1="95.5" y1="18.5" x2="17.5" y2="18.5" stroke="#161616" stroke-dasharray="4 4"/>
<rect x="38.5" width="36" height="36" rx="18" fill="#21A761"/>
<path d="M52.272 21.1553C52.5635 21.4482 53.0361 21.4482 53.3276 21.1553C53.6191 20.8624 53.6191 20.3876 53.3276 20.0947L51.9893 18.75L58.7713 18.75C59.1836 18.75 59.5178 18.4142 59.5178 18C59.5178 17.5858 59.1836 17.25 58.7713 17.25L51.9893 17.25L53.3276 15.9053C53.6191 15.6124 53.6191 15.1376 53.3276 14.8447C53.0361 14.5518 52.5635 14.5518 52.272 14.8447L50.1873 16.9393C49.6042 17.5251 49.6043 18.4749 50.1873 19.0607L52.272 21.1553Z" fill="white"/>
<path fill-rule="evenodd" clip-rule="evenodd" d="M63.25 23.25C63.25 24.4926 62.2474 25.5 61.0107 25.5L56.532 25.5C55.2953 25.5 54.2927 24.4926 54.2927 23.25L54.2927 22.5C54.2927 22.0858 54.6269 21.75 55.0391 21.75C55.4514 21.75 55.7856 22.0858 55.7856 22.5L55.7856 23.25C55.7856 23.6642 56.1198 24 56.532 24L61.0107 24C61.4229 24 61.7571 23.6642 61.7571 23.25L61.7571 12.75C61.7571 12.3358 61.4229 12 61.0107 12L56.532 12C56.1198 12 55.7856 12.3358 55.7856 12.75L55.7856 13.5C55.7856 13.9142 55.4514 14.25 55.0391 14.25C54.6269 14.25 54.2927 13.9142 54.2927 13.5L54.2927 12.75C54.2927 11.5074 55.2953 10.5 56.532 10.5L61.0107 10.5C62.2474 10.5 63.25 11.5074 63.25 12.75L63.25 23.25Z" fill="white"/>
<circle cx="106.5" cy="18" r="6" fill="#21A761"/>
</svg>
