<svg width="31" height="30" viewBox="0 0 31 30" fill="none" xmlns="http://www.w3.org/2000/svg">
<path fill-rule="evenodd" clip-rule="evenodd" d="M1.03919 6.86765C-0.20726 3.12827 3.61518 -0.292977 7.19403 1.3588L27.8974 10.9142C31.383 12.523 31.383 17.4771 27.8974 19.0859L7.19404 28.6412C3.61519 30.293 -0.207252 26.8717 1.03921 23.1324L3.27565 16.4231C3.58355 15.4994 3.58355 14.5007 3.27565 13.577L1.03919 6.86765ZM5.93686 4.08268L26.6402 13.6381C27.8021 14.1744 27.8021 15.8257 26.6402 16.362L5.93687 25.9173C4.74391 26.4679 3.46977 25.3275 3.88526 24.0811L6.12169 17.3718C6.21729 17.085 6.29508 16.7938 6.35506 16.5H18.75C19.5784 16.5 20.25 15.8284 20.25 15C20.25 14.1716 19.5784 13.5 18.75 13.5H6.35504C6.29506 13.2062 6.21728 12.9151 6.1217 12.6284L3.88524 5.91896C3.46976 4.6725 4.74391 3.53209 5.93686 4.08268Z" fill="white"/>
</svg>
