<svg width="41" height="28" viewBox="0 0 41 28" fill="none" xmlns="http://www.w3.org/2000/svg">
<path fill-rule="evenodd" clip-rule="evenodd" d="M34.5 12H14.5C13.3954 12 12.5 12.8954 12.5 14V22C12.5 23.1046 13.3954 24 14.5 24H34.5C35.6046 24 36.5 23.1046 36.5 22V14C36.5 12.8954 35.6046 12 34.5 12ZM14.5 8C11.1863 8 8.5 10.6863 8.5 14V22C8.5 25.3137 11.1863 28 14.5 28H34.5C37.8137 28 40.5 25.3137 40.5 22V14C40.5 10.6863 37.8137 8 34.5 8H14.5Z" fill="white"/>
<path fill-rule="evenodd" clip-rule="evenodd" d="M6.5 4H26.5C27.6046 4 28.5 4.89543 28.5 6V8H32.5V6C32.5 2.68629 29.8137 0 26.5 0H6.5C3.18629 0 0.5 2.68629 0.5 6V14C0.5 17.3137 3.18629 20 6.5 20H8.5V16H6.5C5.39543 16 4.5 15.1046 4.5 14V6C4.5 4.89543 5.39543 4 6.5 4Z" fill="white"/>
<path fill-rule="evenodd" clip-rule="evenodd" d="M24.5 22C26.7091 22 28.5 20.2091 28.5 18C28.5 15.7909 26.7091 14 24.5 14C22.2909 14 20.5 15.7909 20.5 18C20.5 20.2091 22.2909 22 24.5 22Z" fill="white"/>
<path d="M18.5 18C18.5 19.1046 17.6046 20 16.5 20C15.3954 20 14.5 19.1046 14.5 18C14.5 16.8954 15.3954 16 16.5 16C17.6046 16 18.5 16.8954 18.5 18Z" fill="white"/>
<path d="M34.5 18C34.5 19.1046 33.6046 20 32.5 20C31.3954 20 30.5 19.1046 30.5 18C30.5 16.8954 31.3954 16 32.5 16C33.6046 16 34.5 16.8954 34.5 18Z" fill="white"/>
</svg>
