<svg width="25" height="25" viewBox="0 0 25 25" fill="none" xmlns="http://www.w3.org/2000/svg">
<path d="M0.5 24.5L2.19505 18.337C1.14908 16.533 0.599472 14.488 0.600477 12.391C0.603492 5.835 5.96395 0.5 12.5502 0.5C15.7464 0.501 18.7467 1.74 21.0034 3.988C23.2591 6.236 24.501 9.224 24.5 12.402C24.497 18.959 19.1365 24.294 12.5502 24.294C10.5507 24.293 8.58038 23.794 6.83509 22.846L0.5 24.5ZM7.12848 20.693C8.81248 21.688 10.4201 22.284 12.5462 22.285C18.0202 22.285 22.4794 17.851 22.4824 12.4C22.4844 6.938 18.0463 2.51 12.5543 2.508C7.07624 2.508 2.62007 6.942 2.61806 12.392C2.61706 14.617 3.27217 16.283 4.37239 18.026L3.36863 21.674L7.12848 20.693ZM18.5698 15.229C18.4955 15.105 18.2965 15.031 17.9971 14.882C17.6987 14.733 16.2307 14.014 15.9564 13.915C15.6831 13.816 15.4842 13.766 15.2842 14.064C15.0853 14.361 14.5126 15.031 14.3387 15.229C14.1649 15.427 13.9901 15.452 13.6917 15.303C13.3932 15.154 12.4307 14.841 11.2903 13.828C10.403 13.04 9.80319 12.067 9.62936 11.769C9.45554 11.472 9.61128 11.311 9.75998 11.163C9.89462 11.03 10.0584 10.816 10.2081 10.642C10.3598 10.47 10.4091 10.346 10.5095 10.147C10.609 9.949 10.5598 9.775 10.4844 9.626C10.4091 9.478 9.81223 8.015 9.56405 7.42C9.3209 6.841 9.07473 6.919 8.89186 6.91L8.31914 6.9C8.12019 6.9 7.79666 6.974 7.52336 7.272C7.25006 7.57 6.4784 8.288 6.4784 9.751C6.4784 11.214 7.54848 12.627 7.69719 12.825C7.8469 13.023 9.80218 16.025 12.7974 17.312C13.5098 17.618 14.0664 17.801 14.4995 17.938C15.2149 18.164 15.866 18.132 16.3804 18.056C16.9542 17.971 18.1468 17.337 18.396 16.643C18.6452 15.948 18.6452 15.353 18.5698 15.229Z" fill="#161616"/>
</svg>
